<svg width="246" height="246" viewBox="0 0 246 246" fill="none" xmlns="http://www.w3.org/2000/svg">
<path d="M14.1751 231.816C5.10682 222.748 0.478149 212.262 0.289346 200.36C0.100434 188.458 4.16183 178.351 12.4746 170.038C17.1974 165.315 22.3937 162.008 28.0612 160.119C33.7286 158.23 41.1917 157.379 50.4483 157.569C59.8949 157.947 68.0183 157.569 74.8198 156.435C81.9984 155.302 87.0998 153.224 90.1228 150.201L100.325 139.999C97.113 134.898 95.3181 129.325 94.94 123.279C94.9403 117.233 96.5466 111.66 99.7577 106.559L89.5558 96.3574C86.3441 93.1457 81.0541 90.8787 73.6859 89.5566C66.3187 88.2332 58.4777 87.7616 50.1651 88.1393C41.8525 88.5171 34.6738 87.761 28.6279 85.872C22.771 84.172 17.3865 80.8661 12.4745 75.954C3.97291 67.4525 -0.183262 57.2502 0.00619482 45.3476C0.383442 33.6349 5.10715 23.2434 14.1751 14.1754C23.2435 5.10712 33.6344 0.383958 45.3476 0.00616669C57.2498 -0.182855 67.4518 3.97353 75.9534 12.4751C83.8882 20.4099 87.8555 30.045 87.8556 41.3805C87.8555 52.716 88.139 62.6344 88.7057 71.1361C89.2725 79.6376 91.6341 85.9666 95.7904 90.1229L105.992 100.325C111.282 96.9242 116.855 95.3183 122.712 95.5073C128.947 95.6962 134.52 97.491 139.432 100.892L149.634 90.6897C154.546 85.7777 157.002 75.7647 157.002 60.6508L157.002 48.7485C157.002 33.2569 161.347 21.1656 170.037 12.4751C178.539 3.97353 188.647 -0.0883979 200.36 0.289546C212.451 0.667327 222.936 5.29603 231.816 14.1754C240.884 23.2434 245.513 33.7293 245.701 45.6309C245.891 57.5337 241.829 67.6414 233.516 75.954C223.881 85.5891 210.089 89.9336 192.142 88.9896C174.005 88.2334 161.914 90.8786 155.868 96.9242L145.666 107.126C149.256 112.227 150.957 117.706 150.767 123.563C150.957 129.42 149.256 134.898 145.666 139.999L155.868 150.201C162.292 156.624 174.478 159.175 192.425 157.853C210.562 156.719 224.259 160.781 233.516 170.038C242.017 178.539 245.985 188.742 245.418 200.643C245.229 212.546 240.695 222.937 231.816 231.816C222.748 240.884 212.262 245.513 200.36 245.702C188.457 245.891 178.35 241.83 170.037 233.517C162.102 225.582 158.136 216.135 158.135 205.178C158.136 194.221 157.757 184.396 157.002 175.706C156.245 167.015 153.79 160.592 149.634 156.435L139.432 146.233C128.852 153.79 117.895 153.791 106.559 146.233L96.3573 156.435C90.69 162.102 88.1381 174.1 88.7062 192.425C89.272 210.751 85.0226 224.448 75.9535 233.517C67.4525 242.018 57.2495 245.986 45.3478 245.419C33.445 245.229 23.0549 240.696 14.1751 231.816Z" fill="#E6DDFF"/>
</svg>
