<svg width="333" height="251" viewBox="0 0 333 251" fill="none" xmlns="http://www.w3.org/2000/svg">
<path fill-rule="evenodd" clip-rule="evenodd" d="M130.143 4.39417C113.204 8.57219 100.009 18.8943 91.9764 34.2489L90.0716 37.8896H85.6267C79.6156 37.8896 71.13 40.1628 64.0339 43.6745C53.1943 49.039 43.4255 60.4493 39.7014 72.0948C37.7587 78.1712 36.6744 85.1262 37.7473 84.6338C42.3769 82.5074 51.5176 79.0626 54.9331 78.1562C60.16 76.7702 75.8672 75.9656 77.3835 77.0061C79.4637 78.4341 77.0042 79.0755 68.1216 79.4218C58.1361 79.8116 53.5422 80.8691 44.4735 84.8647C36.4292 88.4092 29.9476 92.7725 22.6504 99.5537C15.2819 106.403 10.9603 112.403 7.78084 120.198C4.35609 128.595 3.04722 135.228 3.00088 144.424C2.87399 169.334 16.4525 191.135 38.8929 202.056C47.6209 206.304 52.9662 207.556 64.2541 207.998C73.8019 208.372 74.6153 208.293 81.0442 206.371L87.801 204.351L86.2441 200.042C83.4837 192.404 83.1693 183.974 85.6438 183.974C86.3881 183.974 86.6611 184.966 86.6739 187.715C86.7146 196.335 90.3004 204.569 97.1962 211.876C105.361 220.527 116.799 224.491 131.183 223.653C144.755 222.862 154.583 218.837 162.646 210.768C170.852 202.555 175.503 192.818 177.202 180.296C178.402 171.456 180.353 170.336 180.126 178.618C179.886 187.303 175.841 198.414 169.785 207.018L166.857 211.179L168.996 212.934C172.391 215.72 183.506 220.87 188.957 222.183C195.782 223.827 208.175 223.828 214.265 222.184C216.813 221.496 222.644 219.151 227.222 216.973C237.998 211.844 238.928 211.951 245.972 219.135C248.726 221.943 253.05 227.286 255.581 231.008C264.338 243.886 270.033 248.549 276.271 247.949C280.413 247.552 282.813 245.538 284.885 240.723C286.282 237.478 286.408 236.307 286.004 230.296C285.754 226.571 284.749 220.388 283.77 216.556C281.437 207.425 281.444 204.365 283.8 202.182C284.796 201.259 286.48 200.294 287.543 200.038C288.605 199.781 291.057 198.754 292.99 197.755C304.461 191.831 312.283 181.92 315.542 169.183C317.049 163.295 317.334 154.286 316.178 149.056C315.018 143.804 312.534 137.655 311.574 137.655C311.081 137.655 308.866 138.484 306.651 139.497C296.273 144.247 282.473 144.155 269.871 139.252C264.512 137.168 262.8 135.886 263.902 134.784C264.418 134.269 265.719 134.507 268.149 135.562C281.292 141.265 294.373 141.673 306.22 136.749C310.617 134.921 312.579 133.518 317.349 128.788C326.268 119.946 330.143 110.544 329.996 98.1049C329.811 82.4547 320.534 67.9951 306.447 61.4014C303.778 60.1522 301.155 58.9115 300.618 58.6457C300.082 58.3792 298.946 55.7646 298.095 52.8351C294.127 39.1822 284.945 28.3955 272.246 22.4695C262.158 17.7627 250.775 16.6389 240.593 19.3447C237.68 20.12 234.602 20.7613 233.754 20.7699C232.806 20.7806 230.473 19.071 227.694 16.3303C222.699 11.4041 216.667 8.07193 209.275 6.15786C203.091 4.55663 192.131 5.04549 186.113 7.19115C175.241 11.067 166.187 18.6791 161.732 27.6893C159.474 32.2571 159.095 33.7244 159.058 38.0599L159.016 43.1109L163.651 42.9512C166.199 42.8643 169.889 43.1394 171.849 43.5641C175.869 44.4342 184.323 48.4362 184.323 49.4695C184.323 49.8422 186.168 48.459 188.422 46.396C200.389 35.4446 216.281 35.3741 227.881 46.22C229.777 47.9922 232.141 50.8305 233.136 52.5272C236.615 58.4626 238.219 68.888 235.652 68.888C234.864 68.888 234.448 67.6744 234.073 64.2746C233.744 61.2916 232.759 58.0763 231.286 55.1753C223.058 38.9706 202.372 36.0176 189.41 49.1965L185.586 53.0852L183.707 51.8581C182.674 51.1833 179.757 49.6277 177.226 48.4005C166.204 43.0574 150.834 46.0917 142.819 55.1938C141.21 57.0202 139.017 56.3454 140.085 54.353C141.4 51.8966 146.59 48.0001 151.25 45.9706L155.808 43.9859V40.3752C155.808 31.4975 159.757 23.0851 167.458 15.5586C173.079 10.0651 173.201 10.5625 165.432 7.31514C154.933 2.92762 140.824 1.75965 130.143 4.39417ZM244.919 98.9152C234.696 100.407 228.585 103.34 221.906 109.958C216.089 115.722 212.617 122.524 211.547 130.254C210.461 138.087 211.661 146.731 213.734 146.016C214.234 145.844 214.537 144.807 214.428 143.642C213.342 131.987 214.644 124.439 218.907 117.688C225.922 106.58 239.91 100.029 252.367 102.019C257.247 102.797 262.424 104.437 263.919 105.676C264.991 106.566 267.019 106.027 267.019 104.853C267.019 103.447 258.164 100.02 252.497 99.2316C249.448 98.8083 246.898 98.5047 246.828 98.5582C246.758 98.6116 245.899 98.7727 244.919 98.9152ZM65.6265 114.865C51.4798 117.696 38.5814 129.573 34.9029 143.155C34.0296 146.381 33.8956 147.909 34.4395 148.453C35.5951 149.608 36.5162 148.662 36.9724 145.852C37.788 140.828 42.4731 132.517 47.0256 128.019C58.9752 116.21 75.8986 113.682 91.2336 121.414C96.9653 124.304 103.651 131.166 106.632 137.219C107.908 139.81 109.149 141.93 109.389 141.93C109.629 141.93 111.59 141.225 113.747 140.363C116.836 139.13 119.18 138.79 124.797 138.761C131.397 138.726 132.288 138.895 136.807 141.035C142.978 143.956 146.681 146.884 149.523 151.088C150.754 152.91 151.856 154.521 151.971 154.667C152.087 154.814 152.688 154.739 153.307 154.502C154.306 154.118 154.316 153.851 153.397 152.098C151.562 148.602 145.585 142.718 141.305 140.195C136.979 137.644 129.345 135.506 124.656 135.532C122.196 135.545 115.563 136.82 111.965 137.971C110.8 138.344 110.212 137.805 108.757 135.042C106.371 130.51 97.1713 121.328 92.5917 118.907C85.0799 114.938 73.7499 113.24 65.6265 114.865Z" fill="#FFA136" stroke="#FFE4C4" stroke-width="6"/>
</svg>
