<svg width="245" height="245" viewBox="0 0 245 245" fill="none" xmlns="http://www.w3.org/2000/svg">
<path fill-rule="evenodd" clip-rule="evenodd" d="M61.25 122.5C95.0774 122.5 122.5 95.0774 122.5 61.25C122.5 95.0774 149.923 122.5 183.75 122.5C149.923 122.5 122.5 149.923 122.5 183.75C122.5 149.923 95.0774 122.5 61.25 122.5ZM61.25 122.5C27.4226 122.5 0 149.923 0 183.75C0 217.577 27.4226 245 61.25 245C95.0774 245 122.5 217.577 122.5 183.75C122.5 217.577 149.923 245 183.75 245C217.577 245 245 217.577 245 183.75C245 149.923 217.577 122.5 183.75 122.5C217.577 122.5 245 95.0774 245 61.25C245 27.4226 217.577 0 183.75 0C149.923 0 122.5 27.4226 122.5 61.25C122.5 27.4226 95.0774 0 61.25 0C27.4226 0 0 27.4226 0 61.25C0 95.0774 27.4226 122.5 61.25 122.5Z" fill="#FFA136"/>
</svg>
