<svg width="279" height="246" viewBox="0 0 279 246" fill="none" xmlns="http://www.w3.org/2000/svg">
<path fill-rule="evenodd" clip-rule="evenodd" d="M275.732 219.797C282.276 231.13 274.096 245.297 261.01 245.297H17.0254C3.93877 245.297 -4.24035 231.13 2.30291 219.797L19.0257 190.832C22.0624 185.572 27.6746 182.332 33.7481 182.332H244.287C250.361 182.332 255.973 185.572 259.01 190.832L275.732 219.797ZM233.173 146.081C239.716 157.414 231.537 171.581 218.45 171.581H59.5851C46.4985 171.581 38.3193 157.414 44.8627 146.081L50.6565 136.046C53.6933 130.786 59.3054 127.546 65.3789 127.546H212.656C218.73 127.546 224.342 130.786 227.379 136.046L233.173 146.081ZM201.542 91.295C208.085 102.628 199.906 116.795 186.82 116.795H91.2167C78.1301 116.795 69.951 102.628 76.4942 91.2949L82.2874 81.2608C85.3241 76.0009 90.9363 72.7607 97.0099 72.7607H181.026C187.1 72.7607 192.712 76.0009 195.749 81.2608L201.542 91.295ZM169.912 36.5098C176.455 47.8431 168.276 62.0097 155.189 62.0097H122.847C109.76 62.0097 101.581 47.8431 108.124 36.5097L124.296 8.5C130.839 -2.83335 147.197 -2.83332 153.741 8.50003L169.912 36.5098Z" fill="#BCA3FF"/>
</svg>
