<svg width="248" height="206" viewBox="0 0 248 206" fill="none" xmlns="http://www.w3.org/2000/svg">
<path d="M202.496 -35.0339C163.538 -44.6913 144.086 7.51884 139.23 34.8311C102.747 15.9647 24.6289 -13.3492 4.02858 20.326C-16.5718 54.0011 46.8431 87.0211 81.1256 99.3217C60.814 109.178 24.2337 138.068 40.4049 174.775C56.576 211.483 91.1234 185.13 106.376 167.366C107.157 175.798 115.621 194.942 143.225 204.066C170.828 213.19 196.654 175.17 206.116 155.02C213.834 171.508 237.637 200.855 271.101 186.338C304.565 171.821 279.486 138.355 262.763 123.437C303.521 119.916 383.204 104.816 375.878 72.583C368.553 40.3499 305.371 50.6688 274.696 59.8573C325.153 10.7706 325.086 -19.853 318.746 -29.029C292.142 -60.7183 243.591 -28.332 222.641 -8.17776C219.7 -24.1154 207.986 -32.7225 202.496 -35.0339Z" fill="#BCA3FF"/>
</svg>
