<svg width="290" height="211" viewBox="0 0 290 211" fill="none" xmlns="http://www.w3.org/2000/svg">
<path d="M0.729641 68.2408C11.7528 126.058 102.86 76.3157 147.036 44.2176C135.972 69.9873 116.244 129.068 125.84 159.233C135.437 189.398 171.398 166.53 188.178 151.326C185.712 175.402 186.958 191.682 187.89 196.812C207.662 250.186 305.226 133.936 351.537 69.1383C361.911 58.6783 379.825 28.4325 368.494 -8.87102C357.163 -46.1745 318.295 -32.6774 300.278 -21.2659C323.517 -65.6382 315.484 -92.2176 308.563 -99.9608C280.082 -126.951 245.567 -93.467 231.87 -73.3511C236.417 -88.8615 235.434 -132.582 234.374 -152.503C227.397 -231.004 185.861 -219.935 165.965 -204.588C106.294 -137.736 -10.2935 10.4239 0.729641 68.2408Z" fill="#3834DA"/>
</svg>
