<svg width="268" height="150" viewBox="0 0 268 150" fill="none" xmlns="http://www.w3.org/2000/svg">
<path d="M45.9427 0.810136C78.536 -6.03567 82.0612 32.1868 79.7496 52.1537C86.6844 36.7506 105.408 4.91766 124.826 0.810136C144.243 -3.29739 144.474 27.6229 142.162 43.5965C151.178 16.8978 164.989 9.0822 170.768 8.51172C194.346 3.71965 203.13 25.9115 204.575 37.6064C222.779 5.08881 244.45 7.65599 259.186 20.4919C273.923 33.3278 266.121 79.537 264.387 89.8057C262.654 100.074 245.317 136.871 216.711 147.995C193.826 156.895 183.482 134.018 181.17 121.468C176.547 132.307 163.487 152.787 148.23 147.995C132.974 143.203 126.27 124.32 124.826 115.477C120.202 122.609 106.969 137.555 91.0186 140.294C75.0687 143.032 71.6591 118.615 71.948 106.064C67.7872 128.656 52.8775 138.297 45.9427 140.294C11.269 150.562 0.866844 118.9 0 101.786C1.73369 70.9797 13.3494 7.65594 45.9427 0.810136Z" fill="#3834DA"/>
</svg>
