<svg width="398" height="206" viewBox="0 0 398 206" fill="none" xmlns="http://www.w3.org/2000/svg">
<path d="M8.44008 51.2466C51.7239 144.03 184.391 21.7164 245.314 -51.0385C237.62 -2.93502 229.501 104.968 258.58 151.752C287.658 198.536 338.642 144.807 360.5 112.095C366.605 153.714 375.656 180.624 379.417 188.876C435.583 270.478 550.785 33.3468 601.365 -95.4187C614.424 -117.429 631.779 -175.97 596.726 -234.052C561.673 -292.134 501.782 -252.97 476.217 -226.128C496.54 -310.725 471.633 -352.127 456.64 -362.253C397.019 -395.711 353.004 -324.7 338.45 -285.013C339.514 -313.074 319.202 -386.341 308.913 -419.467C263.64 -548.82 198.204 -512.621 171.146 -478.352C98.8755 -340.479 -34.8437 -41.5373 8.44008 51.2466Z" fill="#BCA3FF"/>
</svg>
