<svg width="323" height="233" viewBox="0 0 323 233" fill="none" xmlns="http://www.w3.org/2000/svg">
<path d="M278.407 227.739C342.147 247.036 379.023 161.404 389.494 116.176C448.316 150.654 575.243 205.966 612.383 151.388C649.522 96.8109 547.301 36.503 491.548 13.1713C526.099 -1.64324 589.311 -46.9296 565.749 -109.559C542.188 -172.188 482.572 -130.976 455.709 -102.541C455.16 -116.689 442.822 -149.355 397.862 -166.838C352.901 -184.321 306.714 -122.911 289.24 -90.0205C277.903 -118.189 241.035 -169.144 184.264 -147.613C127.492 -126.082 166.111 -68.1435 192.517 -41.8657C124.627 -39.2953 -8.83006 -20.545 0.460515 33.8921C9.7511 88.3292 115.425 76.2251 167.101 63.3684C79.0916 141.264 76.4891 192.423 86.1891 208.266C127.494 263.361 210.863 213.207 247.385 181.243C250.85 208.104 269.51 223.433 278.407 227.739Z" fill="#FDCF01"/>
</svg>
