<svg width="235" height="301" viewBox="0 0 235 301" fill="none" xmlns="http://www.w3.org/2000/svg">
<path d="M2.71179 167.552C-19.0181 228.588 95.1875 232.093 155.006 226.216C130.151 244.523 78.5191 289.634 70.8334 323.619C63.1476 357.605 110.026 355.917 134.426 350.825C118.677 372.313 110.795 388.464 108.822 393.854C97.8731 455.543 255.247 399.494 335.302 363.758C350.977 359.603 384.829 340.86 394.843 299.131C404.857 257.401 360.437 248.573 336.975 249.375C383.75 220.185 390.924 190.475 388.664 179.268C376.652 137.781 325.234 150.354 301.026 161.826C313.981 149.631 337.394 107.571 347.481 88.0658C384.571 9.64402 338.969 -2.97609 311.532 0.516581C217.646 30.7638 24.4416 106.517 2.71179 167.552Z" fill="#3834DA"/>
</svg>
