<svg width="193" height="158" viewBox="0 0 193 158" fill="none" xmlns="http://www.w3.org/2000/svg">
<path d="M-90.86 0.345864L-73.5732 67.6279C-66.6585 94.5406 -48.5496 94.4417 -40.3595 91.0281C-34.5967 85.2627 -20.1168 74.7849 -8.29917 78.9965C6.47285 84.261 -4.07583 110.567 5.572 122.595C13.2903 132.218 32.0233 123.872 40.425 118.497C50.8118 113.168 71.2389 108.796 69.8536 133.94C68.4683 159.085 93.4193 159.409 106.068 156.428C125.395 150.981 167.659 138.599 182.099 132.644C196.539 126.689 193.255 108.648 189.808 100.371C183.862 71.7107 170.001 13.5571 162.135 10.2252C152.303 6.06027 152.21 9.99195 124.051 25.0657C101.523 37.1246 92.4755 16.4559 90.7677 4.61418L91.3683 -20.9419C85.4228 -38.3906 59.0543 -26.2908 46.6133 -18.0597C39.6196 -16.2572 25.3738 -18.5589 24.3402 -42.1864C23.3065 -65.8139 4.33664 -64.2927 -5.01911 -60.5787C-24.9923 -55.8029 -68.1563 -44.5568 -81.0266 -37.7783C-93.8969 -30.9998 -92.9448 -9.5378 -90.86 0.345864Z" fill="#D2DAFF"/>
</svg>
