<svg width="375" height="377" viewBox="0 0 375 377" fill="none" xmlns="http://www.w3.org/2000/svg">
<g clip-path="url(#clip0_428_2272)">
<path d="M395.126 80.5933C403.591 80.5491 407.987 81.6383 415.36 85.6031C421.736 89.0315 430.195 99.3081 433.018 107.054C435.666 114.323 435.41 127.697 432.459 136.019C428.65 146.77 424.88 152.131 413.894 162.425C399.72 175.703 384.172 184.419 359.162 193.103C355.083 194.52 352.113 195.677 352.562 195.675C353.013 195.673 360.051 194.91 368.204 193.979C392.496 191.206 415.653 193.436 431.305 200.055C457.501 211.134 469.73 234.282 461.673 257.531C459.653 263.358 458.321 265.222 451.584 271.66C444.633 278.301 442.965 279.352 435.635 281.708C425.172 285.071 414.87 285.359 403.077 282.618C392.687 280.202 383.321 276.336 371.968 269.776C362.768 264.462 348.489 253.845 343.616 248.695C341.642 246.611 339.638 245.274 339.161 245.725C338.685 246.176 339.893 248.233 341.846 250.296C347.928 256.722 357.893 272.481 363.757 284.95C374.125 306.989 376.279 327.393 369.961 343.685C367.034 351.231 365.94 352.784 358.882 359.402C352.083 365.776 350.149 367.003 344.22 368.7C320.563 375.468 298.122 361.985 288.499 335.221C282.75 319.229 281.795 295.984 285.899 271.881C287.276 263.791 288.425 256.919 288.453 256.606C288.479 256.295 286.083 261.571 283.126 268.332C263.999 312.071 239.328 334.498 210.348 334.488C198.238 334.485 191.078 331.285 182.205 321.91C173.332 312.536 170.529 305.21 171.192 293.119C172.774 264.182 196.522 240.78 241.246 224.084C248.159 221.504 253.559 219.4 253.247 219.41C252.933 219.421 246.008 220.191 237.854 221.121C213.563 223.894 190.405 221.664 174.753 215.045C148.558 203.966 136.328 180.819 144.386 157.569C146.406 151.743 147.737 149.879 154.475 143.441C161.471 136.756 163.081 135.749 170.777 133.242C187.391 127.828 207.646 131.099 229.082 142.662C241.21 149.203 256.398 160.018 262.48 166.444C264.433 168.507 266.421 169.826 266.897 169.375C267.374 168.924 266.165 166.867 264.213 164.804C258.131 158.378 248.166 142.619 242.302 130.15C231.934 108.111 229.78 87.7074 236.098 71.4154C239.024 63.8692 240.119 62.3167 247.177 55.6985C253.976 49.3246 255.91 48.0973 261.839 46.4008C285.495 39.6325 307.936 53.1153 317.559 79.8796C323.309 95.8718 324.263 119.117 320.16 143.219C318.783 151.309 317.634 158.182 317.606 158.494C317.579 158.806 319.976 153.529 322.933 146.768C341.904 103.384 366.606 80.7416 395.126 80.5933Z" fill="#CEFF13"/>
<path d="M18.8407 32.5717C21.8764 29.3252 23.8769 28.0408 28.0463 26.6592C31.6517 25.4644 38.6175 25.9484 42.5871 27.6691C46.3116 29.2839 51.3146 34.2128 53.4215 38.345C56.1439 43.682 56.827 47.0576 56.7869 54.9685C56.7349 65.1743 54.4487 74.2561 48.7382 86.938C47.8069 89.0066 47.1771 90.558 47.3381 90.3857C47.4998 90.2133 49.7472 87.2514 52.3329 83.8037C60.0364 73.5315 69.237 65.499 77.4036 61.9165C91.0714 55.9213 104.301 59.6154 110.254 71.0886C111.745 73.964 111.975 75.1456 111.998 80.0426C112.022 85.0944 111.821 86.1105 110.076 89.7588C107.584 94.9667 103.978 99.0024 98.6808 102.513C94.0137 105.606 89.1631 107.783 82.5695 109.747C77.2269 111.338 68.0325 112.952 64.313 112.952C62.807 112.952 61.5749 113.234 61.5749 113.579C61.5749 113.924 62.7945 114.206 64.2848 114.206C68.9262 114.206 78.5241 116.095 85.3897 118.361C97.5258 122.366 106.077 128.914 110.005 137.21C111.825 141.053 112.022 142.031 111.998 147.116C111.975 152.013 111.745 153.194 110.254 156.07C104.301 167.543 91.0714 171.237 77.4036 165.242C69.237 161.659 60.0364 153.627 52.3329 143.355C49.7472 139.907 47.5431 136.986 47.434 136.862C47.325 136.739 48.4712 139.56 49.9809 143.131C59.7481 166.23 59.3959 183.746 48.9412 194.803C44.5731 199.423 40.7715 201 34 201C27.2285 201 23.4269 199.423 19.0588 194.803C8.60409 183.746 8.25189 166.23 18.0191 143.131C19.5288 139.56 20.675 136.739 20.566 136.862C20.4569 136.986 18.2528 139.907 15.667 143.355C7.96361 153.627 -1.23703 161.659 -9.4036 165.242C-23.0714 171.237 -36.3011 167.543 -42.2535 156.07C-43.7451 153.194 -43.9751 152.013 -43.9982 147.116C-44.0221 142.031 -43.8253 141.053 -42.0053 137.21C-38.0765 128.914 -29.5258 122.366 -17.3897 118.361C-10.5241 116.095 -0.926188 114.206 3.71518 114.206C5.20548 114.206 6.42505 113.924 6.42505 113.579C6.42505 113.234 5.20548 112.952 3.71518 112.952C-0.926188 112.952 -10.5241 111.063 -17.3897 108.797C-29.5258 104.793 -38.0765 98.2445 -42.0053 89.9481C-43.8253 86.1055 -44.0221 85.127 -43.9982 80.0426C-43.9751 75.1456 -43.7451 73.964 -42.2535 71.0886C-36.3011 59.6154 -23.0714 55.9213 -9.4036 61.9165C-1.23703 65.499 7.96361 73.5315 15.667 83.8037C18.2528 87.2514 20.4569 90.1725 20.566 90.296C20.675 90.4189 19.5288 87.598 18.0191 84.0275C8.33085 61.116 8.61224 43.5096 18.8407 32.5717Z" fill="#CEFF13"/>
</g>
<defs>
<clipPath id="clip0_428_2272">
<rect width="375" height="377" fill="white"/>
</clipPath>
</defs>
</svg>
