<svg width="184" height="298" viewBox="0 0 184 298" fill="none" xmlns="http://www.w3.org/2000/svg">
<path d="M-432.404 208.784C-469.318 304.281 -289.201 315.197 -194.528 308.718C-234.545 336.499 -317.976 405.406 -331.563 458.789C-345.151 512.171 -271.083 511.708 -232.351 504.803C-258.131 538.042 -271.264 563.213 -274.609 571.643C-294.534 668.681 -43.7272 587.451 84.1669 534.706C109.086 528.873 163.323 500.827 180.917 435.308C198.512 369.789 128.775 353.739 91.7075 353.903C166.789 309.943 179.386 263.297 176.299 245.47C159.115 179.297 77.4158 196.761 38.7142 213.764C59.6854 195.089 98.4428 129.678 115.2 99.3072C177.105 -22.9617 105.665 -45.0643 62.2068 -40.832C-87.2825 2.58293 -395.49 113.287 -432.404 208.784Z" fill="#BCA3FF"/>
</svg>
