<svg width="119" height="214" viewBox="0 0 119 214" fill="none" xmlns="http://www.w3.org/2000/svg">
<path d="M0.56606 159.436C9.12117 204.308 79.8297 165.703 114.115 140.792C105.528 160.792 90.2168 206.645 97.6649 230.056C105.113 253.467 133.022 235.719 146.046 223.919C144.132 242.605 145.099 255.24 145.822 259.221C161.167 300.645 236.887 210.422 272.829 160.133C280.88 152.015 294.783 128.541 285.989 99.5898C277.195 70.6384 247.03 81.1136 233.047 89.97C251.082 55.5326 244.848 34.9042 239.477 28.8947C217.372 7.94738 190.585 33.9346 179.955 49.5466C183.484 37.5089 182.721 3.57748 181.898 -11.8835C176.483 -72.8086 144.247 -64.2179 128.806 -52.307C82.4945 -0.42242 -7.98905 114.565 0.56606 159.436Z" fill="#BCA3FF"/>
</svg>
