<svg width="262" height="91" viewBox="0 0 262 91" fill="none" xmlns="http://www.w3.org/2000/svg">
<path d="M132.273 -78.4297C104.721 -81.4106 96.2729 -43.8803 95.4928 -24.7425C68.7763 -34.254 12.6033 -47.0378 1.6441 -22.0813C-9.3151 2.87513 37.1439 19.563 61.7433 24.7874C48.7646 33.4214 26.4272 56.5916 40.9075 80.1996C55.3879 103.808 76.5706 82.563 85.3519 68.9896C86.6714 74.6854 94.244 86.9953 113.978 90.6681C133.713 94.341 147.842 65.9258 152.44 51.2591C159.255 61.8211 178.272 79.6834 199.815 66.6364C221.358 53.5895 201.085 33.0283 188.256 24.3786C215.812 18.176 268.922 0.428168 260.91 -20.9423C252.898 -42.3127 210.633 -29.3719 190.501 -20.2302C220.452 -58.5097 217.557 -79.4547 212.365 -85.1423C191.213 -104.346 161.012 -77.6698 148.555 -61.9312C145.059 -72.5612 136.244 -77.3594 132.273 -78.4297Z" fill="#BCA3FF"/>
</svg>
