<svg width="440" height="150" viewBox="0 0 440 150" fill="none" xmlns="http://www.w3.org/2000/svg">
<path d="M71.208 150V121.821H0V96.5357L47.4363 0H82.4513L36.4071 93.4286H71.208V64.1786H100.548V93.4286H121V121.821H100.548V150H71.208Z" fill="#3834DA"/>
<path fill-rule="evenodd" clip-rule="evenodd" d="M218.012 0.400995C214.067 1.40058 209.604 4.05188 205.876 7.61125C198.94 14.2326 194.731 15.9903 184.886 16.3775C173.86 16.8111 167.359 19.9441 162.294 27.2657C158.503 32.7472 157.91 35.2684 157.849 46.1518C157.784 57.8542 157.01 60.597 152.023 66.8023C146.509 73.6615 144.532 79.347 145.091 86.7319C145.715 94.9725 149.702 101.85 156.447 106.323C164.767 111.84 167.913 116.239 170.396 125.827C172.094 132.382 172.438 133.169 175.381 137.236C178.199 141.13 183.337 144.685 188.35 146.213C193.542 147.795 199.513 147.47 206.331 145.235C213.997 142.721 218.948 143.234 228.07 147.489C233.285 149.921 233.68 150.008 239.475 150C244.343 149.992 246.142 149.726 248.986 148.588C255.942 145.807 261.051 140.255 264.126 132.134C267.319 123.7 270.732 119.911 278.989 115.633C287.473 111.238 291.495 106.795 293.817 99.2544C296.091 91.872 295.092 84.7117 290.778 77.4641C286.307 69.9516 285.17 63.9342 286.785 56.3223C288.832 46.6667 288.553 42.5576 285.415 36.1608C281.549 28.2786 274.411 23.3848 264.507 21.8252C254.942 20.3186 251.118 17.9329 242.904 8.35012C238.272 2.94454 232.787 0.316094 225.555 0.0354876C222.646 -0.0771162 219.252 0.0872699 218.012 0.400995ZM213.916 47.7975C215.046 46.8124 216.802 45.6436 217.818 45.1992C222.201 43.285 225.475 44.305 230.509 49.1542C233.275 51.8188 234.749 52.778 236.524 53.0688C241.612 53.9034 244.013 55.1993 245.878 58.1167C247.623 60.8469 247.652 61.0234 247.292 66.6252C246.936 72.1537 246.985 72.4668 248.75 75.9587C249.767 77.9717 250.571 80.505 250.565 81.6792C250.547 85.2765 248.573 88.6877 245.361 90.6725C240.254 93.8284 239.689 94.4053 237.987 98.2115C236.185 102.24 234.333 104.083 230.972 105.196C228.798 105.916 224.469 105.562 223.273 104.567C221.625 103.194 217.516 102.873 213.65 103.815C210.409 104.605 209.368 104.634 207.249 103.997C203.617 102.906 201.053 100.065 199.837 95.7878C198.962 92.7108 198.253 91.6757 194.708 88.303C187.848 81.7756 187.707 79.9276 193.292 69.6589C194.403 67.6158 194.753 66.061 194.753 63.1664C194.753 61.0733 195.125 58.4889 195.579 57.4231C197.299 53.391 201.547 50.9805 206.948 50.9727C209.584 50.9685 211.038 50.3061 213.916 47.7975Z" fill="#BCA3FF"/>
<path d="M390.208 150V121.821H319V96.5357L366.436 0H401.451L355.407 93.4286H390.208V64.1786H419.548V93.4286H440V121.821H419.548V150H390.208Z" fill="#3834DA"/>
</svg>
