<svg width="252" height="138" viewBox="0 0 252 138" fill="none" xmlns="http://www.w3.org/2000/svg">
<path d="M178.018 234.112C214.448 234.112 220.183 183.413 218.496 158.064C254.758 166.795 329.979 175.639 340.773 141.164C351.567 106.688 288.489 91.3097 255.601 87.9298C271.342 74.6916 297.259 40.9485 274.997 11.881C252.734 -17.1866 228.053 13.8526 218.496 33.0056C215.966 25.6824 204.329 10.529 178.018 8.50102C151.708 6.47305 137.259 45.9621 133.324 65.9601C122.924 53.0037 95.5449 32.1607 69.2343 52.4403C42.9237 72.72 72.3263 96.943 90.3165 106.519C55.1795 118.631 -11.7214 149.614 1.77126 176.653C15.2639 203.693 68.6721 180.597 93.6896 165.669C59.9581 220.424 66.7044 247.632 74.294 254.392C104.652 276.7 140.352 237.211 154.406 214.678C160.478 228.197 172.678 233.267 178.018 234.112Z" fill="#FDCF01"/>
</svg>
