<svg width="26" height="15" viewBox="0 0 26 15" fill="none" xmlns="http://www.w3.org/2000/svg">
<path d="M13.7626 14.0411C13.7626 14.0411 14.215 13.9915 14.4468 13.7461C14.6589 13.5213 14.6515 13.097 14.6515 13.097C14.6515 13.097 14.6233 11.1157 15.5563 10.8232C16.4758 10.5355 17.6565 12.7392 18.9094 13.5865C19.8559 14.2272 20.5744 14.087 20.5744 14.087L23.9226 14.0411C23.9226 14.0411 25.6733 13.9347 24.8433 12.5772C24.7747 12.466 24.3591 11.5727 22.3545 9.73766C20.2544 7.81684 20.5364 8.12751 23.0644 4.80446C24.6043 2.7809 25.2197 1.54548 25.0272 1.01723C24.8446 0.511938 23.7117 0.646117 23.7117 0.646117L19.943 0.669085C19.943 0.669085 19.6634 0.631612 19.4562 0.753702C19.2539 0.873376 19.1228 1.15261 19.1228 1.15261C19.1228 1.15261 18.5269 2.71804 17.7312 4.05016C16.0528 6.85946 15.3822 7.00814 15.1076 6.83407C14.4688 6.4267 14.6282 5.19975 14.6282 4.32819C14.6282 1.60471 15.0475 0.46963 13.8129 0.175886C13.4034 0.0779714 13.1018 0.0139039 12.0536 0.00302451C10.7086 -0.0102725 9.57091 0.00785982 8.92602 0.318527C8.49692 0.525235 8.1659 0.987005 8.36819 1.0136C8.61707 1.04624 9.18103 1.16349 9.48018 1.56482C9.86637 2.08341 9.85289 3.24629 9.85289 3.24629C9.85289 3.24629 10.0748 6.45209 9.33429 6.84979C8.82672 7.12298 8.13034 6.56571 6.63338 4.01631C5.86713 2.71078 5.28845 1.26745 5.28845 1.26745C5.28845 1.26745 5.17688 0.997884 4.97704 0.852826C4.73552 0.677547 4.39836 0.62315 4.39836 0.62315L0.817184 0.646117C0.817184 0.646117 0.278965 0.660623 0.0815768 0.891508C-0.0937429 1.0958 0.0680906 1.5201 0.0680906 1.5201C0.0680906 1.5201 2.87198 7.9885 6.04735 11.2487C8.95913 14.2369 12.2645 14.0411 12.2645 14.0411H13.7626Z" fill="#3834DA"/>
</svg>
