<svg width="22" height="22" viewBox="0 0 22 22" fill="none" xmlns="http://www.w3.org/2000/svg">
<path d="M10.5684 20.9683H10.5641C8.81008 20.9677 7.08657 20.5276 5.5558 19.6926L0 21.15L1.48683 15.7192C0.569679 14.1298 0.0870814 12.3268 0.0878679 10.4797C0.0901669 4.70124 4.79166 0 10.5683 0C13.372 0.00121002 16.0034 1.09265 17.9821 3.07366C19.9608 5.05457 21.0499 7.68768 21.0488 10.488C21.0464 16.2651 16.3468 20.9659 10.5684 20.9683Z" fill="#3834DA"/>
<path d="M5.8162 17.7961L6.13429 17.9849C7.47172 18.7786 9.0048 19.1985 10.5679 19.1991H10.5714C15.3726 19.1991 19.2803 15.2914 19.2822 10.4882C19.2831 8.16062 18.3779 5.9721 16.7333 4.32556C15.0887 2.67902 12.9015 1.7718 10.5749 1.771C5.76998 1.771 1.86226 5.67836 1.86035 10.4811C1.85968 12.1271 2.32021 13.7301 3.19218 15.1169L3.3993 15.4465L2.51931 18.661L5.8162 17.7961Z" fill="#3834DA"/>
<path d="M15.8485 12.981C15.783 12.8717 15.6085 12.8062 15.3466 12.6751C15.0847 12.544 13.7973 11.9106 13.5572 11.8231C13.3172 11.7358 13.1425 11.6921 12.968 11.9542C12.7935 12.2163 12.2916 12.8062 12.1388 12.981C11.9861 13.1557 11.8333 13.1776 11.5715 13.0465C11.3097 12.9154 10.4659 12.6389 9.46562 11.7468C8.68713 11.0524 8.16158 10.1949 8.00882 9.93268C7.85607 9.67051 7.99254 9.52883 8.12363 9.39825C8.24145 9.28088 8.38552 9.09232 8.51645 8.93945C8.64737 8.78659 8.69102 8.67728 8.77831 8.50263C8.86559 8.32778 8.82196 8.17492 8.75648 8.04383C8.69102 7.91275 8.16731 6.62377 7.94909 6.09943C7.73651 5.5888 7.52063 5.65797 7.3599 5.6499C7.20732 5.64224 7.03256 5.64062 6.858 5.64062C6.68343 5.64062 6.39971 5.70617 6.15969 5.96834C5.91966 6.23051 5.24316 6.86406 5.24316 8.15294C5.24316 9.44191 6.1815 10.6871 6.31244 10.8619C6.44337 11.0367 8.15898 13.6817 10.7859 14.816C11.4107 15.0858 11.8984 15.247 12.2788 15.3676C12.9061 15.567 13.477 15.5388 13.9282 15.4714C14.4313 15.3962 15.4775 14.838 15.6958 14.2263C15.9139 13.6145 15.9139 13.0902 15.8485 12.981Z" fill="#F6F6F6"/>
</svg>
